<svg width="26" height="30" viewBox="0 0 26 30" fill="none" xmlns="http://www.w3.org/2000/svg">
	<g clip-path="url(#clip0_14_18)">
		<path
			d="M2.22242 16.144H2.20965C2.0292 16.4471 1.71171 16.6463 1.26995 16.6463C0.591567 16.6463 0 16.0338 0 15.0546C0 13.9081 0.70988 13.366 1.35677 13.366C1.77981 13.366 2.07857 13.5529 2.24029 13.849L2.25306 13.8552L2.27179 13.4365H3.01231C2.99954 13.7203 2.98763 14.0165 2.98763 14.3452V17.8511H2.22242V16.1431V16.144ZM2.22242 14.733C2.22242 14.6686 2.21646 14.5972 2.20369 14.54C2.1356 14.2438 1.89216 13.9918 1.54999 13.9918C1.05801 13.9918 0.777974 14.4236 0.777974 15.0167C0.777974 15.6099 1.04524 16.0223 1.53126 16.0223C1.84279 16.0223 2.0973 15.8161 2.18497 15.5006C2.20965 15.423 2.22242 15.3331 2.22242 15.2556V14.7338V14.733Z"
			fill="white" />
		<path
			d="M6.5234 15.6345C6.5234 16.0082 6.53617 16.3176 6.54808 16.5758H5.87566L5.8382 16.099H5.82544C5.69436 16.3246 5.39559 16.6472 4.85425 16.6472C4.3129 16.6472 3.79623 16.3052 3.79623 15.2811V13.4383H4.56144V15.1463C4.56144 15.668 4.72316 16.0038 5.12747 16.0038C5.43219 16.0038 5.63137 15.7782 5.71223 15.5781C5.73691 15.5076 5.75564 15.4239 5.75564 15.3331V13.4383H6.52085V15.6363L6.5234 15.6345Z"
			fill="white" />
		<path
			d="M8.16703 12.5605C8.16703 12.7994 7.99935 12.9862 7.73123 12.9862C7.46311 12.9862 7.3082 12.7994 7.3082 12.5605C7.3082 12.3217 7.48269 12.1287 7.73804 12.1287C7.99339 12.1287 8.16107 12.3155 8.16788 12.5605H8.16703ZM7.35161 16.5758V13.4374H8.12362V16.5758H7.35161Z"
			fill="white" />
		<path
			d="M11.1734 16.4789C11.0117 16.5564 10.6942 16.6401 10.3145 16.6401C9.36804 16.6401 8.75264 16.0153 8.75264 15.0414C8.75264 14.0676 9.37485 13.366 10.4397 13.366C10.7197 13.366 11.0057 13.4304 11.1802 13.5141L11.0432 14.1072C10.9189 14.0491 10.7384 13.9847 10.4644 13.9847C9.8796 13.9847 9.53061 14.4298 9.53657 15.0026C9.53657 15.6469 9.94088 16.0144 10.4644 16.0144C10.7316 16.0144 10.9189 15.9562 11.0678 15.8919L11.1734 16.478V16.4789Z"
			fill="white" />
		<path
			d="M12.5055 14.8167H12.5182C12.5931 14.6942 12.68 14.5593 12.7608 14.4492L13.4954 13.4374H14.4164L13.2962 14.7197L14.5781 16.5758H13.6384L12.7668 15.1904L12.5055 15.5059V16.5758H11.7403V12H12.5055V14.8167Z"
			fill="white" />
		<path
			d="M14.9892 14.4809C14.9892 14.0684 14.9764 13.7335 14.9645 13.4365H15.6369L15.6744 13.9195H15.6872C15.911 13.5652 16.266 13.3652 16.7264 13.3652C17.4236 13.3652 18.0024 13.9838 18.0024 14.963C18.0024 16.0972 17.3112 16.6454 16.6209 16.6454C16.2413 16.6454 15.9238 16.478 15.768 16.2268H15.7553V17.8511H14.99V14.4809H14.9892ZM15.7544 15.2609C15.7544 15.3384 15.7604 15.4089 15.7791 15.4803C15.854 15.8029 16.1272 16.0347 16.4515 16.0347C16.9367 16.0347 17.2235 15.616 17.2235 14.9974C17.2235 14.443 16.9622 13.9918 16.4702 13.9918C16.1527 13.9918 15.8599 14.2306 15.7859 14.5778C15.7672 14.6422 15.7544 14.7136 15.7544 14.7779V15.2609Z"
			fill="white" />
		<path d="M18.6305 12H19.4025V16.5758H18.6305V12Z" fill="white" />
		<path
			d="M21.9356 16.5758L21.8854 16.2277H21.8667C21.6803 16.4727 21.3628 16.6463 20.9704 16.6463C20.3601 16.6463 20.0179 16.1889 20.0179 15.7121C20.0179 14.9198 20.6963 14.5197 21.8165 14.5259V14.4747C21.8165 14.2685 21.7356 13.9266 21.2002 13.9266C20.9015 13.9266 20.5899 14.0235 20.3848 14.1583L20.235 13.6428C20.4589 13.5009 20.8512 13.366 21.3305 13.366C22.3016 13.366 22.5817 14.0041 22.5817 14.6871V15.8214C22.5817 16.1052 22.5945 16.3819 22.6251 16.5758H21.9339H21.9356ZM21.8361 15.0414C21.2947 15.0282 20.778 15.1507 20.778 15.6275C20.778 15.9368 20.9713 16.0787 21.2138 16.0787C21.5186 16.0787 21.7433 15.8725 21.8114 15.6469C21.8301 15.5887 21.8361 15.5244 21.8361 15.4733V15.0414Z"
			fill="white" />
		<path
			d="M23.8091 13.4374L24.3572 15.1199C24.4194 15.3129 24.4815 15.5517 24.5249 15.7324H24.5436C24.5939 15.5517 24.6492 15.3199 24.7054 15.1137L25.1786 13.4383H26L25.2408 15.5781C24.8237 16.7512 24.5436 17.2729 24.1827 17.5955C23.884 17.8722 23.5724 17.9753 23.3801 18.0018L23.2056 17.3311C23.3367 17.2985 23.4984 17.228 23.6533 17.1116C23.7963 17.0147 23.9648 16.8278 24.0704 16.6154C24.1019 16.5573 24.1206 16.5123 24.1206 16.4736C24.1206 16.4409 24.1146 16.396 24.0772 16.3184L22.969 13.4374H23.8091Z"
			fill="white" />
	</g>
	<defs>
		<clipPath id="clip0_14_18">
			<rect width="26" height="6" fill="white" transform="translate(0 12)" />
		</clipPath>
	</defs>
</svg>
