<svg width="30" height="30" viewBox="0 0 30 30" fill="none" xmlns="http://www.w3.org/2000/svg">
	<g clip-path="url(#clip0_13_6)">
		<path
			d="M15 30C23.2843 30 30 23.2843 30 15C30 6.71572 23.2843 0 15 0C6.71572 0 0 6.71572 0 15C0 23.2843 6.71572 30 15 30Z"
			fill="#F26724" />
		<path
			d="M13.7575 1.64746C13.9675 1.75246 14.1575 2.42246 14.235 2.61745C16.345 7.93495 10.3975 10.185 8.11 13.9625C6.655 16.3675 6.485 19.2749 7.275 21.9324C7.9775 24.2974 9.7675 25.935 12.0475 26.785C12.0475 26.785 7.4925 20.71 12.7425 15.775C12.7425 15.775 10.97 21.47 14.26 24.3175C14.26 24.3175 13.8175 20.6475 15.1625 19.7775C15.1625 19.7775 20.145 24.1275 14.83 28.7475C14.83 28.7475 26.78 27.19 22.0975 14.2175C22.0975 14.2175 21.4725 16.725 19.2575 17.04C19.2575 17.04 25.2675 7.45745 13.7525 1.64746H13.7575Z"
			fill="white" />
	</g>
	<defs>
		<clipPath id="clip0_13_6">
			<rect width="30" height="30" fill="white" />
		</clipPath>
	</defs>
</svg>
