<?xml version="1.0" encoding="UTF-8" standalone="no"?>
<svg
   version="1.1"
   id="Layer_1"
   x="0px"
   y="0px"
   width="100%"
   viewBox="0 0 1599 355"
   enable-background="new 0 0 1599 355"
   xml:space="preserve"
   sodipodi:docname="quickplay_logo3_baseline_150ppi_adobe_express.svg"
   inkscape:version="1.1.2 (b8e25be8, 2022-02-05)"
   xmlns:inkscape="http://www.inkscape.org/namespaces/inkscape"
   xmlns:sodipodi="http://sodipodi.sourceforge.net/DTD/sodipodi-0.dtd"
   xmlns="http://www.w3.org/2000/svg"
   xmlns:svg="http://www.w3.org/2000/svg"><defs
   id="defs50" /><sodipodi:namedview
   id="namedview48"
   pagecolor="#ffffff"
   bordercolor="#666666"
   borderopacity="1.0"
   inkscape:pageshadow="2"
   inkscape:pageopacity="0.0"
   inkscape:pagecheckerboard="true"
   showgrid="false"
   inkscape:zoom="0.71482176"
   inkscape:cx="834.47375"
   inkscape:cy="104.22178"
   inkscape:window-width="1792"
   inkscape:window-height="1067"
   inkscape:window-x="0"
   inkscape:window-y="25"
   inkscape:window-maximized="1"
   inkscape:current-layer="Layer_1" />

<path
   fill="#F26525"
   opacity="1.000000"
   stroke="none"
   d=" M1.000000,182.468658   C2.307162,176.057663 3.570353,170.105225 4.929910,164.174911   C8.681519,147.810593 16.539431,133.531281 26.954529,120.498322   C38.641964,105.873207 52.872959,94.495140 69.846992,86.647034   C80.681503,81.637596 92.014900,78.408928 103.947418,76.905571   C129.087555,73.738205 153.116852,77.227730 175.401749,89.235321   C206.831955,106.170570 227.149887,132.087418 236.078339,166.895126   C239.502380,180.243790 240.056030,193.835526 238.751541,207.214767   C236.547958,229.814880 228.446457,250.388245 214.170456,268.494690   C201.828674,284.147919 186.732590,295.940979 168.650314,304.055786   C158.194290,308.748108 147.277267,311.636963 135.861908,313.086945   C110.898392,316.257751 87.064194,312.738983 64.873268,300.887909   C33.338108,284.046570 12.888425,258.155273 4.076007,223.377899   C2.838522,218.494278 2.503866,213.381897 1.375654,208.187698   C1.000000,199.645767 1.000000,191.291534 1.000000,182.468658  M96.882904,288.435486   C97.111244,288.494781 97.339584,288.554077 97.567917,288.613373   C97.366577,288.418945 97.165237,288.224548 96.900940,287.340912   C93.829613,282.409424 90.289742,277.705353 87.767097,272.507568   C76.104195,248.476669 81.607567,219.569717 100.919846,203.934662   C100.919846,203.934662 101.251350,204.226761 101.184639,204.995743   C93.528625,228.493134 97.711197,249.646103 113.428551,268.530151   C111.559029,255.721405 113.488045,243.864365 120.802246,232.889633   C143.690216,252.300476 141.926178,281.131714 116.170296,305.212738   C145.175049,300.538086 166.946899,287.299591 178.722916,260.208344   C189.604782,235.174103 184.255997,197.857544 175.343399,188.916748   C170.544601,201.185059 162.416733,209.361252 154.792755,209.410583   C155.199890,208.605606 155.572983,207.877625 155.937668,207.145477   C168.835922,181.250610 169.247375,155.293869 155.632355,129.615479   C145.662582,110.812180 130.810226,97.355560 110.030258,90.372139   C109.773193,90.436852 109.516136,90.501572 109.259071,90.566292   C109.475304,90.739746 109.691536,90.913208 109.938210,91.811768   C121.709892,113.939720 118.310982,132.818756 99.462379,149.482208   C94.101196,154.221863 88.509453,158.700653 83.145409,163.437180   C70.150772,174.911652 59.922386,188.193588 56.417175,205.666687   C51.134701,231.999252 55.443745,255.912399 75.898964,274.727234   C81.916367,280.262085 89.954422,283.600128 96.882904,288.435486  z"
   id="path11" />
<path
   fill="#404041"
   opacity="1.000000"
   stroke="none"
   d=" M1054.997559,116.000000   C1060.470703,116.000000 1065.444824,116.000000 1070.743896,116.000000   C1071.335571,123.674232 1071.908325,131.102356 1072.549194,139.415527   C1080.335571,130.517929 1087.798462,122.803680 1098.033569,118.422615   C1120.698730,108.720932 1152.990356,110.666801 1172.268677,130.582077   C1184.411377,143.126083 1191.147217,157.802200 1194.122559,174.789825   C1198.019043,197.035675 1195.658447,218.388611 1185.677002,238.585938   C1175.679321,258.816010 1159.149658,271.451294 1137.102417,275.848175   C1119.489624,279.360718 1102.197998,278.021484 1086.994873,266.936432   C1083.593262,264.456207 1080.721436,261.249268 1077.171143,257.976410   C1077.171143,285.108978 1077.171143,311.682709 1077.171143,338.627747   C1063.491333,338.627747 1050.093262,338.627747 1036.000000,338.627747   C1036.000000,337.083954 1036.000000,335.330933 1036.000000,333.577911   C1036.000000,278.755524 1036.066528,223.932983 1035.954224,169.110825   C1035.925293,155.019867 1035.400391,140.927917 1034.951172,126.841293   C1034.842773,123.443466 1034.129150,120.064949 1033.606934,116.000000   C1040.953613,116.000000 1047.725952,116.000000 1054.997559,116.000000  M1112.686768,145.000015   C1090.811035,147.592438 1078.932495,162.024033 1077.132324,182.824173   C1076.345703,191.912918 1076.749512,201.135086 1077.067505,210.280838   C1077.414795,220.268097 1081.358765,229.176880 1088.663940,235.744537   C1096.798950,243.058304 1106.608887,246.467133 1118.035156,245.114883   C1132.076172,243.453171 1142.688354,234.902359 1147.851440,222.972565   C1154.417358,207.801224 1155.344849,191.864304 1150.927612,175.928482   C1145.818359,157.495026 1133.734619,145.025055 1112.686768,145.000015  z"
   id="path13" />
<path
   fill="#404041"
   opacity="1.000000"
   stroke="none"
   d=" M411.000153,339.000000   C404.195190,339.000000 397.890045,339.000000 391.141541,339.000000   C391.141541,310.372498 391.141541,282.016052 391.141541,252.450073   C381.479095,267.563293 367.800873,274.838898 351.947174,276.731415   C327.526794,279.646576 306.344971,272.816956 290.703033,252.396133   C280.278839,238.787216 275.439331,223.548309 273.780365,206.586746   C271.948975,187.862518 274.677307,170.100616 282.452179,153.296753   C292.806549,130.917679 310.916992,117.053032 334.996796,113.411461   C353.786743,110.569870 372.453003,113.115143 386.726471,128.276657   C388.806580,130.486191 390.552368,133.010529 392.684296,135.678894   C393.010345,129.039963 393.324768,122.638191 393.643738,116.144089   C407.469360,116.144089 420.421631,116.144089 432.882141,116.144089   C432.882141,190.292023 432.882141,264.331268 432.882141,339.000000   C425.022095,339.000000 418.261047,339.000000 411.000153,339.000000  M327.981537,157.527435   C317.640869,168.479111 315.641296,182.456558 315.396759,196.402802   C315.258972,204.262344 317.515381,212.464554 320.139709,220.009308   C325.630066,235.793762 336.668884,243.665649 351.326294,244.829193   C374.240387,246.648163 389.803467,229.987137 390.914612,208.374039   C391.418060,198.581573 391.441071,188.716904 390.890503,178.929520   C390.171356,166.145538 384.272400,156.056992 373.008392,149.513718   C359.533997,141.686432 339.548981,143.972992 327.981537,157.527435  z"
   id="path15" />
<path
   fill="#404041"
   opacity="1.000000"
   stroke="none"
   d=" M911.000000,237.002655   C911.000000,249.474594 911.000000,261.447083 911.000000,273.708679   C897.323914,273.708679 883.927307,273.708679 870.264404,273.708679   C870.264404,196.939819 870.264404,120.216118 870.264404,43.246086   C883.768738,43.246086 897.164856,43.246086 910.818848,43.246086   C910.818848,90.037697 910.818848,136.649750 910.818848,184.248138   C915.164734,178.203537 918.857910,172.849289 922.773010,167.662552   C934.247314,152.461517 946.037659,137.492004 957.205322,122.070618   C960.758911,117.163681 964.591797,115.701614 970.376526,115.871513   C984.015564,116.272102 997.674377,116.000000 1012.715210,116.000000   C992.544678,137.932678 973.070557,159.108078 953.282104,180.625259   C975.665466,211.402420 998.220825,242.416153 1021.190002,273.998901   C1004.110474,273.998901 987.831238,274.081482 971.556274,273.856201   C970.115295,273.836273 968.277710,272.089661 967.340332,270.671661   C955.458801,252.698380 943.726624,234.626389 931.909546,216.610321   C929.522949,212.971664 926.941101,209.461044 924.182007,205.508652   C919.864258,210.475739 915.676086,215.013580 911.879944,219.858704   C910.935791,221.063812 911.087280,223.256958 911.035339,225.004898   C910.921570,228.834641 911.000000,232.670090 911.000000,237.002655  z"
   id="path17" />
<path
   fill="#404041"
   opacity="1.000000"
   stroke="none"
   d=" M1503.032227,172.947235   C1509.247314,192.019867 1515.431396,210.688980 1521.644897,229.447327   C1525.080811,217.225891 1528.447510,204.912903 1532.008179,192.656296   C1538.987671,168.631882 1546.070312,144.637375 1553.124756,120.634789   C1554.001831,117.650543 1555.165161,115.745064 1559.172363,115.859344   C1572.305664,116.233894 1585.456421,116.000015 1599.421143,116.000015   C1597.827271,120.521477 1596.481445,124.565811 1594.983765,128.553146   C1579.553345,169.635941 1564.643433,210.926788 1548.396362,251.684494   C1541.362549,269.329529 1532.546387,286.463104 1522.767822,302.766113   C1509.666748,324.608673 1490.374390,339.412231 1465.281372,345.864075   C1464.808350,345.985687 1464.296753,345.985199 1463.802490,345.991333   C1462.472412,346.007782 1461.141846,345.996948 1459.513428,345.996948   C1456.374268,334.533142 1453.234863,323.068481 1450.100342,311.621155   C1470.774780,306.019470 1486.071411,293.745911 1496.575195,275.098450   C1499.761963,269.441132 1497.919312,264.655334 1495.867310,259.601837   C1484.206543,230.883423 1472.501099,202.183197 1460.845093,173.462860   C1453.320312,154.921616 1445.852173,136.357330 1438.375366,117.796661   C1438.204468,117.372505 1438.232910,116.868111 1438.139526,116.193008   C1453.220581,116.193008 1468.168823,116.193008 1483.456421,116.193008   C1489.927979,134.851334 1496.464600,153.697510 1503.032227,172.947235  z"
   id="path19" />
<path
   fill="#404041"
   opacity="1.000000"
   stroke="none"
   d=" M1407.001953,274.000000   C1402.005615,273.999878 1397.504028,273.873505 1393.013550,274.043396   C1389.948486,274.159332 1389.059204,272.913208 1388.908569,269.943359   C1388.696289,265.757446 1387.850220,261.603668 1387.288574,257.534851   C1381.563232,261.770264 1376.332642,266.155304 1370.604004,269.746155   C1363.535156,274.177216 1355.576660,276.582245 1347.216431,276.940460   C1338.033081,277.333923 1328.823608,277.914948 1319.895020,274.490356   C1302.330078,267.753357 1291.645508,255.715912 1288.917969,236.698975   C1286.304077,218.474731 1291.585327,203.064209 1304.919800,190.764999   C1314.764893,181.684235 1327.058472,176.932724 1340.041016,173.992950   C1351.902344,171.307053 1363.855469,169.523483 1376.067871,169.985687   C1378.665649,170.084000 1381.270264,170.000000 1383.950684,170.000000   C1382.795776,162.577194 1382.565674,155.612289 1376.885376,150.225540   C1371.479492,145.098862 1364.983643,142.717316 1358.036499,142.139938   C1345.025024,141.058502 1332.237671,142.892761 1319.970093,147.549393   C1316.045898,149.039001 1312.270386,150.920212 1307.796997,152.901123   C1305.221558,144.774277 1302.433350,136.595474 1300.244751,128.259308   C1299.981323,127.256111 1302.710449,124.758759 1304.488892,124.051834   C1311.817993,121.138535 1319.197998,118.233574 1326.776123,116.092529   C1341.086304,112.049446 1355.923950,112.097397 1370.488525,113.227974   C1389.671997,114.717079 1406.351074,122.480988 1416.097290,139.992691   C1420.150391,147.275436 1423.288574,156.007584 1423.662598,164.225388   C1424.892578,191.256683 1424.544312,218.356613 1425.067017,245.425049   C1425.247437,254.764633 1426.204590,264.089203 1426.844238,274.000000   C1420.390747,274.000000 1413.946045,274.000000 1407.001953,274.000000  M1365.844849,197.005020   C1360.367798,198.339218 1354.719238,199.199234 1349.449585,201.106567   C1338.565552,205.046112 1330.306396,211.536575 1329.811890,224.435364   C1329.401733,235.136505 1333.058105,244.063980 1345.519775,246.835587   C1349.795044,247.786438 1354.555908,247.591782 1358.923828,246.876099   C1368.806763,245.256805 1376.273560,239.677017 1380.975342,230.850281   C1386.832642,219.854721 1384.552002,207.914444 1385.017700,196.012466   C1378.539185,196.363312 1372.656128,196.681931 1365.844849,197.005020  z"
   id="path21" />
<path
   fill="#404041"
   opacity="1.000000"
   stroke="none"
   d=" M510.000000,132.002655   C510.000000,156.155960 509.730072,179.814957 510.162201,203.461136   C510.294189,210.681854 511.646301,218.073807 513.670105,225.029343   C519.285461,244.328644 540.577881,248.887131 555.974487,239.330292   C565.352234,233.509384 571.568359,225.008850 571.988098,213.352081   C572.387085,202.270950 572.875122,191.187042 572.955505,180.101685   C573.108887,158.960892 573.000000,137.818192 573.000000,116.338417   C586.575134,116.338417 599.969116,116.338417 614.182739,116.338417   C614.182739,168.670532 614.182739,221.113495 614.182739,273.780518   C602.972107,273.780518 591.367798,273.780518 578.923584,273.780518   C578.197510,266.467133 577.454956,258.987091 576.619629,250.572586   C570.483643,260.467468 562.654480,267.578522 552.689270,271.581696   C532.159302,279.828796 511.692993,280.696564 492.406372,267.989868   C480.127655,259.900238 473.800842,247.505798 471.202850,233.550797   C469.470795,224.247009 469.172943,214.588486 469.091888,205.081406   C468.840637,175.613434 469.000000,146.141968 469.000000,116.336121   C482.579926,116.336121 495.973694,116.336121 510.000000,116.336121   C510.000000,121.316505 510.000000,126.409958 510.000000,132.002655  z"
   id="path23" />
<path
   fill="#404041"
   opacity="1.000000"
   stroke="none"
   d=" M763.959656,214.969482   C770.409363,231.757370 782.617859,240.851425 799.692078,244.028534   C813.306702,246.561890 826.261963,244.012878 839.025757,239.479889   C839.776123,239.213425 840.588989,239.123245 841.632202,238.894058   C843.569824,249.070877 845.475342,259.079163 847.426819,269.328674   C834.966553,274.090790 822.554443,276.715546 809.623352,277.019836   C794.480713,277.376160 779.595825,276.812805 765.132935,271.156677   C745.502136,263.479553 732.036865,249.936691 724.027039,230.691879   C718.567810,217.575470 717.028503,203.718445 718.133484,189.780197   C719.880798,167.740112 727.967285,148.255325 745.067139,133.564774   C757.748413,122.670151 772.613281,115.807373 789.355103,114.123055   C799.369446,113.115555 809.584106,112.420189 819.567017,113.263268   C829.083069,114.066933 838.415222,117.049316 847.988953,119.108452   C845.269775,130.446671 842.876953,140.424316 840.476440,150.433716   C833.337769,148.682083 826.646240,146.446442 819.775452,145.459991   C794.004395,141.760086 767.723938,152.388580 761.947266,182.608292   C759.869446,193.477966 760.012268,204.114441 763.959656,214.969482  z"
   id="path25" />
<path
   fill="#404041"
   opacity="1.000000"
   stroke="none"
   d=" M1222.000000,135.000000   C1222.000000,104.206306 1222.000000,73.912605 1222.000000,43.309769   C1235.633545,43.309769 1249.026123,43.309769 1262.710449,43.309769   C1262.710449,119.983719 1262.710449,196.681824 1262.710449,273.690125   C1249.366699,273.690125 1235.974121,273.690125 1222.000000,273.690125   C1222.000000,227.644119 1222.000000,181.572052 1222.000000,135.000000  z"
   id="path27" />
<path
   fill="#404041"
   opacity="1.000000"
   stroke="none"
   d=" M655.151855,273.999969   C652.030396,274.387817 650.927368,273.611572 650.932922,270.592468   C651.027039,219.303955 651.000305,168.015228 651.000305,116.363327   C664.521790,116.363327 677.914551,116.363327 691.654846,116.363327   C691.654846,168.543472 691.654846,220.913986 691.654846,274.000000   C679.787354,274.000000 667.711304,274.000000 655.151855,273.999969  z"
   id="path29" />
<path
   fill="#404041"
   opacity="1.000000"
   stroke="none"
   d=" M680.072754,91.433594   C672.466919,93.494522 665.356750,93.440475 658.476990,89.838135   C650.978821,85.911926 646.069763,74.738266 648.106567,65.803230   C650.183899,56.689865 659.091797,49.125694 667.863586,48.996120   C674.247864,48.901821 680.590088,48.533630 686.096680,52.958439   C690.823059,56.756409 693.384949,61.485668 694.011292,67.437157   C695.192444,78.659828 691.379395,86.964767 680.072754,91.433594  z"
   id="path31" />
<path
   fill="#FFFEFD"
   opacity="1.000000"
   stroke="none"
   d=" M110.227776,90.780647   C130.810226,97.355560 145.662582,110.812180 155.632355,129.615479   C169.247375,155.293869 168.835922,181.250610 155.937668,207.145477   C155.572983,207.877625 155.199890,208.605606 154.792755,209.410583   C162.416733,209.361252 170.544601,201.185059 175.343399,188.916748   C184.255997,197.857544 189.604782,235.174103 178.722916,260.208344   C166.946899,287.299591 145.175049,300.538086 116.170296,305.212738   C141.926178,281.131714 143.690216,252.300476 120.802246,232.889633   C113.488045,243.864365 111.559029,255.721405 113.428551,268.530151   C97.711197,249.646103 93.528625,228.493134 101.430740,204.466263   C101.678551,203.535034 101.680260,203.133301 101.681969,202.731552   C101.316193,203.036636 100.950409,203.341736 100.584633,203.646820   C81.607567,219.569717 76.104195,248.476669 87.767097,272.507568   C90.289742,277.705353 93.829613,282.409424 96.957733,287.663849   C97.014519,287.986786 97.066414,287.944946 97.066414,287.944946   C89.954422,283.600128 81.916367,280.262085 75.898964,274.727234   C55.443745,255.912399 51.134701,231.999252 56.417175,205.666687   C59.922386,188.193588 70.150772,174.911652 83.145409,163.437180   C88.509453,158.700653 94.101196,154.221863 99.462379,149.482208   C118.310982,132.818756 121.709892,113.939720 110.002861,91.372574   C110.067513,90.933388 110.227776,90.780647 110.227776,90.780647  z"
   id="path33" />
<path
   fill="#FFFEFD"
   opacity="1.000000"
   stroke="none"
   d=" M109.987640,91.010025   C109.691536,90.913208 109.475304,90.739746 109.259071,90.566292   C109.516136,90.501572 109.773193,90.436852 110.129013,90.576393   C110.227776,90.780647 110.067513,90.933388 109.987640,91.010025  z"
   id="path35" />
<path
   fill="#FFFEFD"
   opacity="1.000000"
   stroke="none"
   d=" M96.989204,288.008453   C97.165237,288.224548 97.366577,288.418945 97.567917,288.613373   C97.339584,288.554077 97.111244,288.494781 96.974655,288.190216   C97.066414,287.944946 97.014519,287.986786 96.989204,288.008453  z"
   id="path37" />



<path
   fill="#F26525"
   opacity="1.000000"
   stroke="none"
   d=" M100.752243,203.790741   C100.950409,203.341736 101.316193,203.036636 101.681969,202.731552   C101.680260,203.133301 101.678551,203.535034 101.464096,204.081772   C101.251350,204.226761 100.919846,203.934662 100.752243,203.790741  z"
   id="path45" />
</svg>
